<svg xmlns="http://www.w3.org/2000/svg" viewBox="0 0 175.35 146.27"><defs><style>.cls-1{fill:#fd3436;}.cls-2{fill:#009ec8;}.cls-3{fill:#fff;}.cls-4{fill:#004e9d;}.cls-5{fill:#fafafa;}</style></defs><title>LOGO</title><g id="Layer_2" data-name="Layer 2"><g id="Layer_1-2" data-name="Layer 1"><polygon class="cls-1" points="123.97 7.16 145.64 133.76 173.46 122.64 175.35 0 123.97 7.16"/><polygon class="cls-1" points="42.84 11.87 64.57 145.9 91.79 146.27 95.5 3.9 42.84 11.87"/><polygon class="cls-2" points="0 24.7 51.3 19.19 50.07 141.4 25.2 137.9 0 24.7"/><polygon class="cls-2" points="86.32 12.82 113 137.39 136.59 131.88 131.12 10.82 86.32 12.82"/><path class="cls-3" d="M166.9,96.05h0a5.33,5.33,0,0,0-5.69-4.35,4.08,4.08,0,0,0-.52.07,5.45,5.45,0,0,0-1.63.58l-2-11a1.78,1.78,0,0,0,.11-.52,8.09,8.09,0,0,0,0-.92,3.67,3.67,0,0,0-.27-1.2,2.25,2.25,0,0,0-.46-.65,2.78,2.78,0,0,0-.29-.41,5.5,5.5,0,0,0-1.72-1.25,6,6,0,0,0-2.94-.59c-.07,0-1-.06-2-.14l-1.19-.07.05-.07,4.31-7A1.71,1.71,0,0,0,153,67l-.1-.58-1.6-8.77a5.43,5.43,0,0,0,.65-1.16,2.2,2.2,0,0,0,.15-1,3.58,3.58,0,0,0-.61-1.59l-.14-.22c0-.24,0-.71,0-1.17a2.42,2.42,0,0,0-.43-1.32,3.46,3.46,0,0,0-1.79-1.36,5,5,0,0,0-1.91-.14l-1.14.12c-.44,0-1,.13-1.55.23l4.06-6.55a1.67,1.67,0,0,0,.36-.73,1.81,1.81,0,0,0,0-1l-.05-.25L147,31a2,2,0,0,0,.15-.93,1.63,1.63,0,0,0-.07-.37v0h0a.32.32,0,0,0,0-.08,5.63,5.63,0,0,1,.21-1.59c0-.07.05-.12.06-.16a0,0,0,0,0,0,0h0a2.26,2.26,0,0,0,.32-1.32,2.43,2.43,0,0,0-.9-1.63,4.55,4.55,0,0,0-1.55-.79,5.37,5.37,0,0,0-1.48-.23h0l-.52,0a14.26,14.26,0,0,0-3.59.79,4.87,4.87,0,0,1-.66.16c-1.18.22-3.35.45-5.55,1a7.83,7.83,0,0,1-1.21.17c-1.1.1-2.32.06-3.41.15a4.27,4.27,0,0,0-1.92.52h0a6.17,6.17,0,0,1-1.22.19c-.6.05-1.3.08-2,.14q-.61,0-1.23.15c-.63.12-2.14.28-3.65.52-.76.12-1.53.26-2.25.45a7.61,7.61,0,0,0-1.94.7h0l-.07,0,0,0a1.81,1.81,0,0,0-.34.2h0a3.54,3.54,0,0,0-.67.67,3.58,3.58,0,0,0-1.68-.48l-.33,0a17.74,17.74,0,0,0-4.16,1s-.27.08-.65.15c-1.19.22-3.35.45-5.55,1a9.34,9.34,0,0,1-1.22.18c-1.1.09-2.32.05-3.41.14a4.2,4.2,0,0,0-1.92.53h0a6.33,6.33,0,0,1-1.22.19c-.6.05-1.3.08-2,.14q-.62,0-1.23.15c-.78.14-2.45.42-4.12.75a29.84,29.84,0,0,0-4.35,1.06,3.87,3.87,0,0,0-.67.36l-.29.18,0,0c-.1.08-.23.18-.39.33a7.48,7.48,0,0,0-1.3,2.07c-.52,1.09-1,2.32-1.41,3.26a3,3,0,0,1-.17.36,6.11,6.11,0,0,0-4.16-3.79,16.14,16.14,0,0,0-5.44-.75,4.31,4.31,0,0,0-1.75.48h0a9.55,9.55,0,0,1-1.79.28c-1.12.1-2.37.1-2.71.09a6.31,6.31,0,0,0-1,0,11.89,11.89,0,0,0-2,.33,4.75,4.75,0,0,0-2.07,1,15.89,15.89,0,0,1-1.46,1.14c-.62.46-1.29.92-1.63,1.14a19.17,19.17,0,0,1-2.94,1.85,6.91,6.91,0,0,0-3.07,2.83,4.07,4.07,0,0,0-.74,1.14c-.32.7-.55,1.41-.8,2A3.42,3.42,0,0,1,45.16,50c-.26.23-.5.47-.73.71a5.62,5.62,0,0,0,0-1.29,7.38,7.38,0,0,0-2.83-5,3,3,0,0,0-2-.44,6.49,6.49,0,0,0-1,.15,1.64,1.64,0,0,0-.44-.09,24.75,24.75,0,0,0-2.83-.06A4.49,4.49,0,0,0,35,44l-.12,0-.36,0a8.35,8.35,0,0,0-1.93.34,4.09,4.09,0,0,0-2.19,1.54h0a4.57,4.57,0,0,1-1.05.28l-.75.13a4.22,4.22,0,0,0-.9.28,5.46,5.46,0,0,0-2,1.58,2.14,2.14,0,0,0-.34.42l-.15.25,0,.07c-.43.84-1,2.18-1.53,3.41-.27.6-.54,1.17-.74,1.55l-.14.25A5.18,5.18,0,0,0,20,59.22a6,6,0,0,0,2.32,4.26l11,60.09a1.71,1.71,0,0,0,.72,1.12,1.69,1.69,0,0,0,1.13.3l.17,0,13.6-2.5a1.74,1.74,0,0,0,1.16-.8l3.59-5.79a14.88,14.88,0,0,0,2.33,2,16.33,16.33,0,0,0,10.66,2.43,23.8,23.8,0,0,0,2.46-.34c5.94-1.07,10.6-3.62,13.49-7.66,1.21-1.72,3-4,4.52-6.58l1.28,7,.11.6a1.72,1.72,0,0,0,.72,1.11,1.68,1.68,0,0,0,1.3.28l.62-.11,29.1-5.31.62-.12a1.72,1.72,0,0,0,1.13-.76,1.67,1.67,0,0,0,1.06.14l.6-.11,29.1-5.31.6-.11a1.76,1.76,0,0,0,1.17-.8l2.08-3.35a5.33,5.33,0,0,0,5.47,3.5,5,5,0,0,0,.52-.07,5.34,5.34,0,0,0,4.36-5.7C167,96.4,166.93,96.23,166.9,96.05Z"/><path class="cls-4" d="M165.19,96.36A3.61,3.61,0,1,1,161,93.48,3.58,3.58,0,0,1,165.19,96.36Zm-6.57,1.21A3.07,3.07,0,1,0,161.1,94,3.07,3.07,0,0,0,158.62,97.57Zm5.16,1.11-.59.11-1.46-1.63-.88.17.34,1.83-.51.09-.73-4,1.75-.32a1.56,1.56,0,0,1,1,0,1,1,0,0,1,.61.77c.14.79-.36,1.18-1.05,1.32Zm-2.26-1.87c.55-.1,1.43-.18,1.28-1-.11-.6-.66-.58-1.15-.49l-1.12.21.25,1.39Z"/><path class="cls-4" d="M143.73,25.58a13,13,0,0,0-3.47.68c-.91.39-3.71.57-6.48,1.21-2.22.51-5.18.07-6,.64s-3.46.42-5,.71-5.85.63-7.36,1.5l0,0-.17.09a1.76,1.76,0,0,0-.43.47,11.28,11.28,0,0,0-1.08,1.67c.07-.76-1.21-1.61-1.88-1.6a15.75,15.75,0,0,0-3.82.92c-.91.38-3.71.56-6.48,1.2-2.23.52-5.17.08-6,.64s-3.46.42-5,.71a70.83,70.83,0,0,0-8.16,1.72,2.73,2.73,0,0,0-.42.24.67.67,0,0,0-.14.09.91.91,0,0,0-.21.18C80.08,38.05,79,43,77.61,43.52a1.59,1.59,0,0,0-1.17,1.4c-.39-.36-.81-.67-1.22-1a1.06,1.06,0,0,0,.47-.44c.48-1.25-.23-3.62-3.06-4.48-2.09-.64-4.84-1-5.84-.42s-4.59.64-5.45.6-3.11.27-3.77.89a36.26,36.26,0,0,1-3.33,2.46,20.78,20.78,0,0,1-3.15,2,5.2,5.2,0,0,0-2.41,2.33c-.84.61-1.19,3.39-2.36,4.44-2.35,2.09-3.47,5.5-1.78,5.61l.21,0a16.09,16.09,0,0,0-1.26,3.56L42,52.15a1.52,1.52,0,0,0,.32-.35c1.41-2.67-.65-5.31-1.64-6-.75-.52-2.8.52-2.51-.08a19.2,19.2,0,0,0-2.79,0c-.46.13-2.78,0-3.6,1.27-.61,1-2.72.92-3.36,1.22A3.68,3.68,0,0,0,27,49.41a.62.62,0,0,0-.14.14,1.45,1.45,0,0,0-.1.18l0,.05c-.7,1.32-2.28,5.51-2.88,5.79-3.26,1.56-2.29,5.63.09,6.86L35,123.26l13.59-2.5,4.54-7.33v0h0l-.22-1.21a14.62,14.62,0,0,0,4,4.2c3.11,2.08,7.1,2.69,11.84,1.83,5.65-1,9.82-3.38,12.39-7,2-2.85,5.35-6.92,6.63-11.42l2.29,12.56.11.6.61-.12,29.1-5.31.62-.12,1.79-2.87.3,1.68.11.58.6-.11,29.1-5.32.6-.11L157.57,94h0l-.11-.59-2.26-12.36.18-.38a3.94,3.94,0,0,0-.14-1.33c-.06-.13-.26-.2-.37-.47a4.09,4.09,0,0,0-3.34-1.4c-1,.07-5.11-.65-7.29.17a25.45,25.45,0,0,1-3.26.94c-2.21.35-2.92,1.52-3.15,2.17l-.81-4.42,9.15-1.67.6-.11,4.49-7.27h.05l-.11-.58-1.74-9.56a5.18,5.18,0,0,0,.88-1.29c.24-.61-.61-1.33-.7-1.89-.06-.37.08-1.54-.14-1.85-.74-1-1.46-.83-3.26-.65-1.36.13-4.89.9-5.88.85s-3.65.48-4.07.39c-.89-.2-2.76.48-3.45.74l-.37-2,9.64-1.76.6-.11,4.52-7.27h0v0l0,0,0,0-.1-.5-2-11.11c.18-.14.29-.28.25-.43a5.58,5.58,0,0,1,.44-3.25C146.3,26.14,144.47,25.58,143.73,25.58Z"/><path class="cls-3" d="M149.46,84.79l1.36-.92A14.61,14.61,0,0,0,153,82.65c.9-.67.33-1.13.33-1.13l0-.19s.71-.5.74-.82-.23-.31-.35-.76a1,1,0,0,0-.56-.61,10.92,10.92,0,0,0-7.78-.41A54.63,54.63,0,0,0,140,80.27a8.25,8.25,0,0,0-1,1c.08.47-.12,1.76.55,2.4a7.26,7.26,0,0,0,.74.75l1.82,3.28c.76-2.74,1.72-3.14,1.72-3.14a3.36,3.36,0,0,1,2.11,0c1.45.82,2.05,3.41,2.19,3A14.89,14.89,0,0,1,149.46,84.79Z"/><path class="cls-3" d="M142.74,27.45l-.56.05a5.67,5.67,0,0,0-2.68.7,33.51,33.51,0,0,0-3.95.36c-2.08.44-3.71.68-5.7.92l-.25,0-.27.06a33.23,33.23,0,0,1-8.05,1h-.15l-.16,0a13.38,13.38,0,0,1-1.51.17,8.38,8.38,0,0,0-3.29,1s-.56.43-.57.81a4.22,4.22,0,0,0,.42,1.23c.61.47.24.13,1.53.88A5.67,5.67,0,0,1,119,36.53l.41.22h.64l.55.5a.94.94,0,0,0,.14.12,7.85,7.85,0,0,1,2,3.87c.43,2.37-.27-1,.49-2.24.15-.27.25-1.87.45-2.34l0-.13,0-.08a2.61,2.61,0,0,1,2.33-1.8h0A3.11,3.11,0,0,1,128.17,36a6.56,6.56,0,0,0,.76.84l.74.63.48.59a3.16,3.16,0,0,1,2.13-1.49,15.12,15.12,0,0,0,1.1-2.1,4.69,4.69,0,0,1,1.43-1.27,2.52,2.52,0,0,1,2.21-.45c.37.13,1.15.54,1.52.63l1.81,1,.55.49c-.28-1.55-.15-2.23.1-2.47.59-.55,1.49-.46,1.27-1.39,0-.13.14-.2.67-.43a2.59,2.59,0,0,0,1.27-2.24l-.49-.94Z"/><path class="cls-3" d="M102.29,42.1c.77-3.81,3.84.82,3.84.82a5,5,0,0,0,1.86-3.4l.4-.7a4.33,4.33,0,0,1,.64-.68c.59-.55,1.15-.43.92-1.38,0-.12.14-.19.68-.42a2.62,2.62,0,0,0,1.26-2.26l-.49-.95-1,.11-.57,0a5.6,5.6,0,0,0-2.66.7,29.58,29.58,0,0,0-4,.36,57.51,57.51,0,0,1-5.7.91l-.26,0-.26.06a32.28,32.28,0,0,1-8.05,1h-.15l-.16,0a13.57,13.57,0,0,1-1.52.17,8.27,8.27,0,0,0-3.28,1l-.57.83.42,1.24c.61.47.32.71,1.61,1.47A4.31,4.31,0,0,1,86.7,42.3l.24.4L87.15,44s.92,1.18.95,1.19l2.06,2.18c.38.11-.4-1.73.47-2.48.24-.2,1-.42,1.22-.89l.31-.32,0-.25c.28-.36.49-.85.63-1a2.21,2.21,0,0,1,1.34-.89c.86-.12,1.48-.82,3.47-.58C98.67,41.48,101.9,44,102.29,42.1Z"/><path class="cls-3" d="M146.57,52.48c-1,.15-2.42.46-2.42.46a6.8,6.8,0,0,1-3.06.56,16.56,16.56,0,0,0-6.27.83l-.6,1-.05.12c-.21.55-.36,1.14,0,1.43l.2.15.24.2,1.16-.21c.51,0,.7.18,1.07.82a2.4,2.4,0,0,0,1,1.14l1,1.37s1.87-3,4.27-1.53a4.68,4.68,0,0,1,1.45,2l.77-3.16c1.39-2,1.5-.69,3-1.6s-.34-1.5.08-2.28C149.13,52.61,147.6,52.33,146.57,52.48Z"/><path class="cls-3" d="M65.68,40.66c-3.39-.06-6.71-.17-9.28,1.84a20.63,20.63,0,0,1-4.31,2.66c-2.32.77-4,3.78-1.26,2.65,1.42-.57,2.47-1,2.47-1,.72.13,1.2.47,1.78,1.48.09.4.65,2,1,2,.17,0,.21-.9,1-.91a5.77,5.77,0,0,1,.45-1.93c.56-1.15.5-.47,1.36-1.22,1,0,1.82,1.93,2.43,2.67.11.13.34,0,.29-.35-.2-1.44,1.17-2.19,1.6-2.47a2.4,2.4,0,0,1,3.52,1,6.86,6.86,0,0,0,2.56,2.08,6,6,0,0,1,1.15,2.34c-.25,1,.35-.68.35-.68s1.39-1.39-.13-4.85c-.46-1,.79-2.93,2.89-2.74,1,.09-.44-3.11-1.82-2.7C70.9,40.73,67.35,40.11,65.68,40.66Z"/><path class="cls-3" d="M86.16,79.5a.94.94,0,0,1-.22-.1l-.18-.18-.37,0A11.26,11.26,0,0,1,84.14,79c-1.28-.21-3-1-4.8.06l-1,.86a2.46,2.46,0,0,1-.83.25c-1.16.26-3.17.48-3.83,1.15a1.16,1.16,0,0,0-.24,1.4l.16.33,1.32,0A9.15,9.15,0,0,1,79,84a2.76,2.76,0,0,1,1.08,1.07,3.63,3.63,0,0,0,.89,1.4l.69,1,.39-1.2c0-.13-.07-.7-.07-.84a2.93,2.93,0,0,1,.7-1.74,3.78,3.78,0,0,0,2.09-1.64,2.06,2.06,0,0,1,1.45-1l.6-.16.09-.37C87.05,79.91,86.47,79.64,86.16,79.5Z"/><path class="cls-3" d="M69.46,94.42c.39.14,1.35.61,1.86.3.81-.51,1.48-.27,1.73.11.72,1.09,1-1,1,1.73,0,.77-.13,1.23-.53,1.51s-.34.63-.38.92a15.35,15.35,0,0,0,.39,2.13c.41,1.76-.21.5-.6,0s-1-.87-1.24-.71c-1.43.85-1.16-.47-1.34-.94a9.32,9.32,0,0,0-.6-1.3c-.12-.19-.75-.64-.52-1.4A2.73,2.73,0,0,0,69,95.15C68.93,94.94,69,94.36,69.46,94.42Z"/><path class="cls-3" d="M40.46,49.51c-.05,2.32-1,3-2.48,5a3.61,3.61,0,0,0-.57,2.3,6.22,6.22,0,0,1-.48,2.95l-.07.49-.34,2.3-.9-2.14a7.35,7.35,0,0,0-1.52-1.95,7.43,7.43,0,0,1-2.38-3.85A2.85,2.85,0,0,0,30.33,54,2.84,2.84,0,0,1,27.77,52v0A2.07,2.07,0,0,1,28,50.22a2.77,2.77,0,0,1,2.09-.8,3.2,3.2,0,0,0,1.45-.34l.11-.08.14,0a1.66,1.66,0,0,0,.57-.46,1.82,1.82,0,0,1,2.13-.67,8.73,8.73,0,0,0,1.38-.18c1.3-.25,2.53-.68,3.7.19l.55.56Z"/><path class="cls-3" d="M113.76,58.22l-1.31.31a6.27,6.27,0,0,1-3.58.49,10.35,10.35,0,0,0-6.43,1.12,4.17,4.17,0,0,0-.92,1.2c-1.13,1.72.65,1.64.88,2.1s1.3.12,1.3.12c.54,0,.74.21,1.13.92a1.67,1.67,0,0,0,.88.88,7.26,7.26,0,0,1,1.19,1.54c.11.3.39-1.44.39-1.44l.07-.6a1.4,1.4,0,0,1,.91-.74c.38,0,1-.1,1.27.49a20.31,20.31,0,0,0,2.56,3.17c.2.24,1.56-1.78,1.56-1.78l-.16-1.74a2.31,2.31,0,0,1,2.37-1.8c1.41-.06-.93-1.69.45-3.06a1.62,1.62,0,0,0-1.11-1.27A4.61,4.61,0,0,0,113.76,58.22Z"/><path class="cls-3" d="M117.43,93.17a7.3,7.3,0,0,1,.62-1.48l.47-.58,2.72-3.22.49-1.24-.11-.62a3.38,3.38,0,0,0-.64-.63,6.43,6.43,0,0,0-2.16-.58c-5.49-1.46-3.09,1-9.48,1.35L107,86.9l-.27.83a3.14,3.14,0,0,0,1,1.6c.22.22.35,1.47,1.47,1.34a3.31,3.31,0,0,1,2.82.83c.74.62,2.44-.17,3.06.25a6.4,6.4,0,0,1,1.86,3S116.78,96.23,117.43,93.17Z"/><path class="cls-5" d="M51.71,112.45l-11.11,2-10.79-59,.16,0,1,.72,1,2c1.74,1.15,1.39,2.35,2.32,2.6l.81,1,.15.54c.7.51.62,1.69.95,2.32.13.25.82,1.28.94,1.46a24.9,24.9,0,0,1,.8-5.33c.14-1.25.25-2.8.39-3.83,0,0,1.45-2.76,1.93-3.47a1.8,1.8,0,0,1,.51-.48Z"/><path class="cls-3" d="M65.68,40.66c-3.39-.06-6.71-.17-9.28,1.84a20.63,20.63,0,0,1-4.31,2.66c-2.32.77-4,3.78-1.26,2.65,1.42-.57,2.47-1,2.47-1,.72.13,1.2.47,1.78,1.48.09.4.65,2,1,2,.17,0,.21-.9,1-.91a5.77,5.77,0,0,1,.45-1.93c.56-1.15.5-.47,1.36-1.22,1,0,1.82,1.93,2.43,2.67.11.13.34,0,.29-.35-.2-1.44,1.17-2.19,1.6-2.47a2.4,2.4,0,0,1,3.52,1,6.86,6.86,0,0,0,2.56,2.08,6,6,0,0,1,1.15,2.34c-.25,1,.35-.68.35-.68s1.39-1.39-.13-4.85c-.46-1,.79-2.93,2.89-2.74,1,.09-.44-3.11-1.82-2.7C70.9,40.73,67.35,40.11,65.68,40.66Z"/><path class="cls-3" d="M86.16,79.5a.94.94,0,0,1-.22-.1l-.18-.18-.37,0A11.26,11.26,0,0,1,84.14,79c-1.28-.21-3-1-4.8.06l-1,.86a2.46,2.46,0,0,1-.83.25c-1.16.26-3.17.48-3.83,1.15a1.16,1.16,0,0,0-.24,1.4l.16.33,1.32,0A9.15,9.15,0,0,1,79,84a2.76,2.76,0,0,1,1.08,1.07,3.63,3.63,0,0,0,.89,1.4l.69,1,.39-1.2c0-.13-.07-.7-.07-.84a2.93,2.93,0,0,1,.7-1.74,3.78,3.78,0,0,0,2.09-1.64,2.06,2.06,0,0,1,1.45-1l.6-.16.09-.37C87.05,79.91,86.47,79.64,86.16,79.5Z"/><path class="cls-3" d="M69.46,94.42c.39.14,1.35.61,1.86.3.81-.51,1.48-.27,1.73.11.72,1.09,1-1,1,1.73,0,.77-.13,1.23-.53,1.51s-.34.63-.38.92a15.35,15.35,0,0,0,.39,2.13c.41,1.76-.21.5-.6,0s-1-.87-1.24-.71c-1.43.85-1.16-.47-1.34-.94a9.32,9.32,0,0,0-.6-1.3c-.12-.19-.75-.64-.52-1.4A2.73,2.73,0,0,0,69,95.15C68.93,94.94,69,94.36,69.46,94.42Z"/><path class="cls-5" d="M84.87,83.52c-.27.49-.51.53-.84.74a3.18,3.18,0,0,0-.94.9c-.39.5-.17,1-.19,1.63a16.35,16.35,0,0,1-.26,1.94l0,.73s-.56-.34-1.25-.8a7.12,7.12,0,0,1-1.15-1,2.18,2.18,0,0,1-.87-1.44c-.13-.7-.49-.64-.8-1s-.67-.32-1.2-.51a4.37,4.37,0,0,0-1.75-.12,2.05,2.05,0,0,1-.78-.11l.66,3.63c.54,2.9.91,6.09-.07,8.3.24,1,.29,1.86-.24,2.31a2.55,2.55,0,0,0-.39,2.48c.21.59-.41,1.88-.51,2.53s-.45,1.44-.71.6-1.42-2.77-2.21-2.14c-1.34,1-2.56-1.14-2.7-1.92a5.24,5.24,0,0,0-1.1-1.85c-.13-.15-.06-.47.06-.8A8.53,8.53,0,0,1,66,93.54L60.18,61.46c-.57-3.13-.39-5.13.59-6.47a5,5,0,0,1,3.45-1.85,3.37,3.37,0,0,1,2.52.55c1.7,1.13,3,3.76,3.66,7.61l.65,3.55,11.11-2L81.27,58C80.09,51.48,77.65,47,74,44.54c-.13-.09-.27-.16-.41-.24a5.37,5.37,0,0,0-1.66.43,5,5,0,0,0-.3,2.06,9.59,9.59,0,0,0,.58,1.79,9.1,9.1,0,0,1,.31,1.69c.1.56-1.43,2.78-1.52,3.79,0-.29-.52-.57-.94-1A9.41,9.41,0,0,1,69,51a2.17,2.17,0,0,0-.88-.75c-.52-.2-.68-.48-1.19-1.26s-.74-.74-1.49-1.48-.64-.17-1.12-.08-.48-.25-1.09.44-1,.79-1,1.41c0,2.86-1.77-.14-1.77-.14s-.33-.94-1-1.11-.64-.62-.94-.28a8,8,0,0,0-.74,1.17l-.14,1.86s-.84-.59-1.34,1.2c-.2.68-1.17-.33-1.64-2.06-.14-.54-.77-.88-1.08-1.26s-.74,0-.74,0-1.37.51-1.84.62l-.13,0c-2.3,3.79-2.8,9.18-1.46,16.48l4.86,26.63c1.45,7.94,4,13.06,7.92,15.65,2.87,1.91,6.44,2.45,10.91,1.63C87.38,107.06,88.54,96.54,87,88.18l-1.07-5.89-.23,0C85.39,82.4,85.15,83,84.87,83.52Z"/><path class="cls-5" d="M97.56,50.91l-.11-.6.62-.11,15.31-2.8-1.87-10.24a6.28,6.28,0,0,0-.67.2l-1.38,2.19s-1.17,4.51-3.45,5.27c0,0-2.6-4.17-2.73-1.83-.08,1.42-2.59,2-6.07-.43-1.44-1-2.68.33-3.67,1.14s-.49.81-1.73,2.11c-1,1-1,3.41-1.13,4.4a5.87,5.87,0,0,0-2.62-3.27c-1.63-.77-2.14-3.61-2.71-4.09-.34-.29-.69-.63-.89-.83L95.82,104.2l27.87-5.09-1.79-9.76a13.88,13.88,0,0,0-1.08,1.41c-1.17,1.4-2.36,2.15-2.64,4.39A8.58,8.58,0,0,1,117,97.07c-.61-1.63-.3-.52-1.49-2.38-.6-1-1.1-2-2.85-1.73a2.73,2.73,0,0,1-2.37-.9c-.65-.58-2.42.14-2.77-.37a8.9,8.9,0,0,0-1.28-1.57l-.88.16-.63.12-.1-.6-2.56-14-.11-.6.62-.11,14.81-2.71-1.55-8.46-1.25.31c-.59,1.14.11,1.67-.18,2.91a2.79,2.79,0,0,1-1.35,1.39c-.82.49-.4,1.15-.91,1.23s-1.59-1.48-2-2.15c-.14-.22-.42-.48-.59-.69l-1-1c-.85.35-1,2.78-1.79,3.09-.94-2.39-2.4-2.37-2.83-3.24l-.07-.14-.15-.1a10,10,0,0,0-1.55-.84,4.24,4.24,0,0,1-2-1.35l-.32.06-.11-.6Z"/><path class="cls-5" d="M143.2,31.45c.67.12-1.38,1.47-1.36,2.45,0,2.22-.92,3.78-.94,2.94,0-1-1.12-1.13-2-1.61s-1.59-.79-2.12-1-1.37.25-1.8.67a12.85,12.85,0,0,0-2.2,2.65c-.32.69-2.1.65-1.94,2.05.08.64-2.81-1.64-3-2s-2.3-2.48-2.56-1.4c-.31,1.3-.61,3.23-1.54,4.38-.38.47-.12,1.9-.23,2.28-.61,2.16-1.08,0-1.08,0s-1.54-4.43-2.56-4.53a2.24,2.24,0,0,1-2.24-1.4,5.26,5.26,0,0,0-.77-1.21l11.41,62.43,27.9-5.1-1.86-10.14-.54,1.13c-1.46.71-4.06,2.82-4.53,4-.27.63-.37,2.26-.79,2.6a22.86,22.86,0,0,0-1.69-2.3c-.45-.46-.49-2-1.12-2.1s-1.14-.33-1.6,0a2.64,2.64,0,0,0-.63,1.32,14.38,14.38,0,0,0-.6,2.17c-1.13.64-1.88-2.44-2.7-3.59a7.25,7.25,0,0,0-1.85-2v0l-.4.07-.6.11-.11-.58-2.56-14-.1-.59.59-.11,14.83-2.71-1.57-8.59a3.77,3.77,0,0,0-1.62,0c-.58,1-1.28,1.63-1,2.32-.16,2.59-1.32,3.11-1.6,2.09s-2.22-2.32-1.81-1.86c0,0-1-1.48-2,.21-.36.6-1.27.53-1.26,2.14-1-1.78-1.77-2-2.17-2.82l-.77-.49-.14-.77c-.44-.29-.68,0-1.19-.26a4.9,4.9,0,0,1-1.74-1l-.15,0-.6.1-.11-.58-2.17-11.93-.11-.58.6-.11,15.32-2.8L144,31.13C143.48,31.3,143,31.42,143.2,31.45Z"/></g></g></svg>